<?xml version="1.0" encoding="UTF-8"?>
<svg width="35px" height="66px" viewBox="0 0 35 66" version="1.1" xmlns="http://www.w3.org/2000/svg" xmlns:xlink="http://www.w3.org/1999/xlink">
    <!-- Generator: Sketch 56.2 (81672) - https://sketch.com -->
    <title>Group 4</title>
    <desc>Created with Sketch.</desc>
    <g id="Page-1" stroke="none" stroke-width="1" fill="none" fill-rule="evenodd">
        <g id="Обучение.-Первая." transform="translate(-172.000000, -451.000000)">
            <g id="Group-4" transform="translate(172.000000, 451.000000)">
                <g id="Group" transform="translate(0.000000, 14.000000)" fill="#FFFFFF">
                    <rect id="Rectangle" stroke="#F8F8F8" x="4.5" y="13.5" width="26" height="38"></rect>
                    <rect id="Rectangle" stroke="#EFEFEF" x="2.5" y="8.5" width="30" height="40"></rect>
                    <rect id="Rectangle" stroke="#E6E6E6" x="0.5" y="0.5" width="34" height="45"></rect>
                </g>
                <g id="down-arrow" transform="translate(18.000000, 2.500000) scale(1, -1) translate(-18.000000, -2.500000) translate(13.000000, 0.000000)" fill="#5383BA" fill-rule="nonzero">
                    <path d="M9.89768225,0.0966183575 C9.75985551,-0.0322061192 9.53588707,-0.0322061192 9.39806034,0.0966183575 L5.00483323,4.21095008 L0.602991956,0.0966183575 C0.465165223,-0.0322061192 0.241196782,-0.0322061192 0.10337005,0.0966183575 C-0.0344566832,0.225442834 -0.0344566832,0.434782609 0.10337005,0.563607085 L4.74640811,4.90338164 C4.81532148,4.96779388 4.90146318,5 4.99621906,5 C5.08236077,5 5.17711665,4.96779388 5.24603002,4.90338164 L9.88906808,0.563607085 C10.035509,0.434782609 10.035509,0.225442834 9.89768225,0.0966183575 Z" id="Path"></path>
                </g>
            </g>
        </g>
    </g>
</svg>